<?xml version="1.0" encoding="UTF-8" standalone="no"?>
<!-- Created with Inkscape (http://www.inkscape.org/) -->
<svg
   xmlns:svg="http://www.w3.org/2000/svg"
   xmlns="http://www.w3.org/2000/svg"
   version="1.0"
   width="162.5"
   height="162.5"
   id="svg101">
  <defs
     id="defs12" />
  <ellipse
     cx="80.742188"
     cy="80.742188"
     rx="59.921875"
     ry="59.921875"
     transform="matrix(0.869243,0,0,0.869243,11.3115,10.8198)"
     style="font-size:12px;fill:#f0f0f8;fill-opacity:0.19607795;fill-rule:evenodd;stroke:#4a4b4f;stroke-width:15.09939957;stroke-linecap:round;stroke-linejoin:round"
     id="path137" />
  <path
     d="M 85.0394,34.9409 C 85.0394,34.9409 85.0394,13.6811 85.0394,13.6811"
     transform="matrix(1.05,0,0,1.05,-7.79525,-7.77029)"
     style="font-size:12px;fill:none;fill-rule:evenodd;stroke:#4a4b4f;stroke-width:9.375;stroke-linecap:round;stroke-linejoin:round"
     id="path254" />
  <path
     d="M 135.078,84.8047 C 135.078,84.8047 155.906,84.5472 155.906,84.5472"
     transform="matrix(1.05,0,0,1.05,-7.79525,-7.77029)"
     style="font-size:12px;fill:none;fill-rule:evenodd;stroke:#4a4b4f;stroke-width:9.375;stroke-linecap:round;stroke-linejoin:round"
     id="path255" />
  <path
     d="M 85.0394,134.154 C 85.0394,134.154 85.0394,155.413 85.0394,155.413"
     transform="matrix(1.05,0,0,1.05,-7.79525,-7.77029)"
     style="font-size:12px;fill:none;fill-rule:evenodd;stroke:#4a4b4f;stroke-width:9.375;stroke-linecap:round;stroke-linejoin:round"
     id="path256" />
  <path
     d="M 35.4331,84.5472 C 35.4331,84.5472 14.1732,84.5472 14.1732,84.5472"
     transform="matrix(1.05,0,0,1.05,-7.79525,-7.77029)"
     style="font-size:12px;fill:none;fill-rule:evenodd;stroke:#4a4b4f;stroke-width:9.375;stroke-linecap:round;stroke-linejoin:round"
     id="path257" />
  <path
     d="M 49.6063,49.1142 C 49.6063,49.1142 35.4331,34.9409 35.4331,34.9409"
     transform="matrix(1.05,0,0,1.05,-7.79525,-7.77029)"
     style="font-size:12px;fill:none;fill-rule:evenodd;stroke:#4a4b4f;stroke-width:9.375;stroke-linecap:round;stroke-linejoin:round"
     id="path258" />
  <path
     d="M 49.6063,119.98 C 49.6063,119.98 35.4331,134.154 35.4331,134.154"
     transform="matrix(1.05,0,0,1.05,-7.79525,-7.77029)"
     style="font-size:12px;fill:none;fill-rule:evenodd;stroke:#4a4b4f;stroke-width:9.375;stroke-linecap:round;stroke-linejoin:round"
     id="path259" />
  <path
     d="M 120.472,49.1142 C 120.472,49.1142 134.646,34.9409 134.646,34.9409"
     transform="matrix(1.05,0,0,1.05,-7.79525,-7.77029)"
     style="font-size:12px;fill:none;fill-rule:evenodd;stroke:#4a4b4f;stroke-width:9.375;stroke-linecap:round;stroke-linejoin:round"
     id="path260" />
  <path
     d="M 120.472,119.98 C 120.472,119.98 134.646,134.154 134.646,134.154"
     transform="matrix(1.05,0,0,1.05,-7.79525,-7.77029)"
     style="font-size:12px;fill:none;fill-rule:evenodd;stroke:#4a4b4f;stroke-width:9.375;stroke-linecap:round;stroke-linejoin:round"
     id="path261" />
</svg>
