<?xml version="1.0" encoding="UTF-8" standalone="no"?>
<!-- Created with Inkscape (http://www.inkscape.org/) -->

<svg
   xmlns:dc="http://purl.org/dc/elements/1.1/"
   xmlns:cc="http://creativecommons.org/ns#"
   xmlns:rdf="http://www.w3.org/1999/02/22-rdf-syntax-ns#"
   xmlns:svg="http://www.w3.org/2000/svg"
   xmlns="http://www.w3.org/2000/svg"
   xmlns:sodipodi="http://sodipodi.sourceforge.net/DTD/sodipodi-0.dtd"
   xmlns:inkscape="http://www.inkscape.org/namespaces/inkscape"
   width="297mm"
   height="210mm"
   id="svg2985"
   version="1.1"
   inkscape:version="0.48.4 r9939"
   sodipodi:docname="depth_profile_rel.svg">
  <defs
     id="defs2987" />
  <sodipodi:namedview
     inkscape:document-units="mm"
     pagecolor="#ffffff"
     bordercolor="#666666"
     borderopacity="1.0"
     inkscape:pageopacity="0.0"
     inkscape:pageshadow="2"
     inkscape:zoom="0.43415836"
     inkscape:cx="130.6841"
     inkscape:cy="195.73544"
     inkscape:current-layer="layer1"
     id="namedview2989"
     showgrid="false"
     inkscape:window-width="1618"
     inkscape:window-height="1028"
     inkscape:window-x="54"
     inkscape:window-y="-8"
     inkscape:window-maximized="1" />
  <metadata
     id="metadata2991">
    <rdf:RDF>
      <cc:Work
         rdf:about="">
        <dc:format>image/svg+xml</dc:format>
        <dc:type
           rdf:resource="http://purl.org/dc/dcmitype/StillImage" />
        <dc:title></dc:title>
      </cc:Work>
    </rdf:RDF>
  </metadata>
  <g
     inkscape:label="Layer 1"
     inkscape:groupmode="layer"
     id="layer1">
    <g
       style="font-size:471.47601318px;font-style:normal;font-variant:normal;font-weight:normal;font-stretch:normal;line-height:76.00000501%;letter-spacing:0px;word-spacing:0px;fill:#000000;fill-opacity:1;stroke:none;font-family:Consolas;-inkscape-font-specification:Consolas"
       id="text3061">
      <path
         d="m 255.9701,352.49445 -46.27279,0 -44.89151,-96.229 c -3.37661,-7.3667 -6.8298,-13.46734 -10.35958,-18.30192 -3.53007,-4.83435 -7.32858,-8.67123 -11.39554,-11.51065 -4.06722,-2.83916 -8.518,-4.8727 -13.35235,-6.10064 -4.83458,-1.22767 -10.24458,-1.84157 -16.23001,-1.8417 l -19.337882,0 0,133.98391 -40.977896,0 0,-300.888261 80.574518,0 c 17.49604,3.01e-4 32.5366,1.91874 45.12172,5.755323 12.5848,3.837173 22.906,9.208802 30.96364,16.114903 8.05725,6.906659 13.96604,15.232683 17.72639,24.978099 3.75993,9.745926 5.64,20.527546 5.64022,32.344916 -2.2e-4,9.3622 -1.3815,18.22539 -4.14383,26.58959 -2.76277,8.36458 -6.86823,15.9616 -12.31639,22.79107 -5.44857,6.82982 -12.20148,12.73861 -20.25874,17.7264 -8.05763,4.98809 -17.3045,8.70986 -27.74065,11.16532 8.44097,2.91617 15.61593,8.01922 21.5249,15.30916 5.90862,7.29019 11.93252,16.9975 18.07171,29.12193 z M 190.35943,134.25262 C 190.35925,118.13795 185.33294,106.09015 175.28048,98.109195 165.2277,90.128743 151.06962,86.13839 132.8062,86.138124 l -38.675762,0 0,99.451976 33.150662,0 c 9.66881,1.6e-4 18.37853,-1.11253 26.12916,-3.33809 7.75035,-2.22522 14.34978,-5.52494 19.79831,-9.89916 5.44821,-4.37386 9.66877,-9.74549 12.66171,-16.1149 2.99259,-6.36902 4.48897,-13.69746 4.48915,-21.98533 z"
         style=""
         id="path3320" />
      <path
         d="m 505.7511,224.72629 c -2.4e-4,5.6787 -0.077,10.43643 -0.23022,14.2732 -0.1537,3.83699 -0.38392,7.44365 -0.69064,10.82 l -162.30009,0 c -7e-5,23.63527 6.59936,41.78371 19.79831,54.44535 13.19877,12.66175 32.22969,18.9926 57.0928,18.99257 6.75276,3e-5 13.50566,-0.26855 20.25873,-0.80575 6.75274,-0.53713 13.27543,-1.26614 19.5681,-2.18702 6.29229,-0.92082 12.31619,-1.95678 18.07171,-3.10787 5.75512,-1.15103 11.08838,-2.4172 15.9998,-3.79852 l 0,32.92045 c -10.89695,3.06951 -23.21333,5.56348 -36.94917,7.48192 -13.73621,1.91843 -27.97102,2.87765 -42.70449,2.87766 -19.79843,-1e-5 -36.83417,-2.68582 -51.10727,-8.05745 -14.27327,-5.37163 -25.97575,-13.16049 -35.10746,-23.36661 -9.13183,-10.20607 -15.88473,-22.71429 -20.25874,-37.5247 -4.37407,-14.81029 -6.56109,-31.57744 -6.56107,-50.30152 -2e-5,-16.26825 2.34047,-31.65413 7.0215,-46.15769 4.68095,-14.50324 11.5106,-27.24167 20.48895,-38.21534 8.97823,-10.97327 19.99007,-19.68298 33.03555,-26.12916 13.04529,-6.44573 27.85564,-9.66871 44.43109,-9.66894 16.11475,2.3e-4 30.38794,2.53257 42.81959,7.59702 12.43131,5.06491 22.90599,12.23987 31.42406,21.52491 8.51767,9.28545 14.96362,20.56587 19.33789,33.84129 4.37381,13.27577 6.56083,28.12449 6.56107,44.5462 z m -41.66854,-5.75532 c 0.46024,-10.2827 -0.53735,-19.68305 -2.99277,-28.20108 -2.45579,-8.51771 -6.25429,-15.84615 -11.39554,-21.98534 -5.14159,-6.13882 -11.54917,-10.93491 -19.22277,-14.3883 -7.67391,-3.45299 -16.57547,-5.17959 -26.7047,-5.17979 -8.74821,2e-4 -16.72892,1.68843 -23.94214,5.06468 -7.21344,3.37665 -13.42918,8.13438 -18.64724,14.2732 -5.21825,6.13919 -9.43881,13.50599 -12.66171,22.10044 -3.22306,8.59477 -5.21823,18.03349 -5.98554,28.31619 z"
         style=""
         id="path3322" />
      <path
         d="m 648.94351,60.124067 -68.37323,0 0,-32.920445 108.8907,0 0,291.909958 68.83366,0 0,33.38087 -185.32138,0 0,-33.38087 75.97025,0 z"
         style=""
         id="path3324" />
      <path
         d="m 978.37814,352.49445 -0.92085,-31.07875 c -12.58515,12.43152 -25.36195,21.40981 -38.33045,26.93491 -12.96879,5.52511 -26.58971,8.28766 -40.86279,8.28767 -13.19897,-1e-5 -24.47939,-1.68823 -33.8413,-5.06469 -9.36205,-3.37645 -17.07417,-8.01907 -23.13639,-13.92788 -6.06232,-5.90877 -10.5131,-12.85352 -13.35235,-20.83426 -2.83933,-7.98067 -4.25897,-16.65202 -4.25894,-26.01406 -3e-5,-23.17468 8.63294,-41.32311 25.89895,-54.44535 17.26589,-13.12201 42.78113,-19.68307 76.54579,-19.6832 l 47.88428,0 0,-20.25874 c -1.8e-4,-13.65913 -4.37422,-24.59423 -13.12213,-32.80534 -8.74825,-8.21073 -22.10059,-12.31619 -40.05705,-12.31639 -13.04551,2e-4 -25.89905,1.45822 -38.56066,4.37405 -12.66178,2.91622 -25.74554,7.06005 -39.2513,12.4315 l 0,-36.14343 c 5.06463,-1.84148 10.70484,-3.64481 16.92065,-5.41 6.21568,-1.76474 12.77674,-3.33786 19.6832,-4.71937 6.9063,-1.38104 14.11963,-2.49374 21.64002,-3.33808 7.52017,-0.84388 15.11719,-1.26594 22.79107,-1.26617 13.96611,2.3e-4 26.55107,1.53498 37.75492,4.60425 11.20351,3.06974 20.6806,7.75073 28.43129,14.04299 7.7503,6.2927 13.6975,14.19666 17.8415,23.71193 4.1436,9.51565 6.2155,20.71933 6.2157,33.61108 l 0,159.30733 z m -4.37405,-105.2073 -50.87705,0 c -9.97601,1.1e-4 -18.57062,0.9977 -25.78384,2.99277 -7.21344,1.99528 -13.12223,4.83457 -17.7264,8.51788 -4.60434,3.68349 -8.01916,8.0959 -10.24447,13.23724 -2.22546,5.14149 -3.33816,10.93518 -3.33809,17.38107 -7e-5,4.45084 0.69057,8.70978 2.07192,12.77682 1.3812,4.06714 3.60659,7.6738 6.67617,10.82 3.06942,3.14628 7.05978,5.64025 11.97107,7.48192 4.91111,1.84174 10.89664,2.76259 17.95661,2.76256 9.2084,3e-5 19.75981,-2.80089 31.65427,-8.40277 11.89418,-5.60181 24.44077,-14.46499 37.63981,-26.58959 z"
         style=""
         id="path3326" />
      <path
         d="m 237.09265,707.59326 c -9.05526,2.30213 -18.41724,3.95199 -28.08598,4.94958 -9.66912,0.99758 -19.49153,1.49638 -29.46725,1.49638 -29.00696,0 -50.64695,-6.56106 -64.92003,-19.6832 C 100.3461,681.23391 93.209507,661.0903 93.209586,633.92513 l 0,-120.63156 -64.689824,0 0,-33.61108 64.689824,0 0,-63.53876 40.057044,-10.35958 0,73.89834 103.82602,0 0,33.61108 -103.82602,0 0,117.40858 c -1.2e-4,16.57539 4.41229,28.96851 13.23724,37.17938 8.82469,8.21097 21.8317,12.31642 39.02109,12.31639 7.36663,3e-5 15.42408,-0.5755 24.17235,-1.72659 8.74789,-1.15103 17.87966,-2.95437 27.39534,-5.41001 z"
         style=""
         id="path3328" />
      <path
         d="m 389.26337,512.83315 -68.37323,0 0,-33.15066 108.8907,0 0,197.75288 68.83366,0 0,33.38087 -185.32139,0 0,-33.38087 75.97026,0 z m 14.04299,-130.07029 c 4.45064,3.3e-4 8.59447,0.80607 12.43149,2.41724 3.83674,1.61181 7.17482,3.87557 10.01426,6.79128 2.83914,2.91634 5.06453,6.25443 6.67618,10.01426 1.61133,3.76045 2.41707,7.86591 2.41723,12.31639 -1.6e-4,4.2976 -0.8059,8.36469 -2.41723,12.20128 -1.61165,3.83716 -3.83704,7.21362 -6.67618,10.12937 -2.83944,2.9163 -6.17752,5.18006 -10.01426,6.79128 -3.83702,1.61176 -7.98085,2.4175 -12.43149,2.41723 -4.45091,2.7e-4 -8.59474,-0.80547 -12.4315,-2.41723 -3.837,-1.61122 -7.17508,-3.87498 -10.01426,-6.79128 -2.8394,-2.91575 -5.06479,-6.29221 -6.67618,-10.12937 -1.61158,-3.83659 -2.41733,-7.90368 -2.41723,-12.20128 -1e-4,-4.45048 0.80565,-8.55594 2.41723,-12.31639 1.61139,-3.75983 3.83678,-7.09792 6.67618,-10.01426 2.83918,-2.91571 6.17726,-5.17947 10.01426,-6.79128 3.83676,-1.61117 7.98059,-2.41691 12.4315,-2.41724 z"
         style=""
         id="path3330" />
      <path
         d="m 548.57069,479.68249 45.58216,0 56.63237,152.86136 12.20128,37.29449 12.66171,-38.21534 56.17195,-151.94051 43.97066,0 -90.70388,231.13375 -46.04258,0 z"
         style=""
         id="path3332" />
      <path
         d="m 1025.1114,583.04808 c -3e-4,5.67871 -0.077,10.43644 -0.2303,14.2732 -0.1537,3.83699 -0.3839,7.44366 -0.6906,10.82001 l -162.30009,0 c -7e-5,23.63527 6.59936,41.7837 19.79831,54.44535 13.19877,12.66174 32.22969,18.99259 57.0928,18.99256 6.75276,3e-5 13.50566,-0.26855 20.25873,-0.80574 6.75274,-0.53714 13.27543,-1.26614 19.5681,-2.18703 6.29229,-0.92081 12.31619,-1.95677 18.07171,-3.10787 5.75514,-1.15103 11.08834,-2.4172 15.99984,-3.79851 l 0,32.92044 c -10.897,3.06951 -23.21337,5.56348 -36.94921,7.48192 -13.73621,1.91844 -27.97102,2.87766 -42.70449,2.87766 -19.79843,0 -36.83417,-2.68582 -51.10727,-8.05745 -14.27327,-5.37162 -25.97575,-13.16049 -35.10746,-23.36661 -9.13183,-10.20607 -15.88473,-22.71429 -20.25874,-37.5247 -4.37407,-14.81028 -6.56109,-31.57744 -6.56107,-50.30152 -2e-5,-16.26825 2.34047,-31.65413 7.0215,-46.15768 4.68095,-14.50324 11.5106,-27.24168 20.48895,-38.21535 8.97823,-10.97327 19.99007,-19.68298 33.03555,-26.12916 13.04529,-6.44573 27.85564,-9.66871 44.43109,-9.66894 16.11475,2.3e-4 30.38794,2.53257 42.81959,7.59702 12.43131,5.06491 22.90599,12.23987 31.42406,21.52491 8.5177,9.28545 14.9636,20.56587 19.3379,33.8413 4.3738,13.27577 6.5608,28.12448 6.5611,44.54619 z m -41.66858,-5.75532 c 0.46024,-10.2827 -0.53735,-19.68305 -2.99277,-28.20108 -2.45579,-8.51771 -6.25429,-15.84614 -11.39554,-21.98533 -5.14159,-6.13882 -11.54917,-10.93492 -19.22277,-14.38831 -7.67391,-3.45299 -16.57547,-5.17959 -26.7047,-5.17979 -8.74821,2e-4 -16.72892,1.68843 -23.94214,5.06469 -7.21344,3.37665 -13.42918,8.13437 -18.64724,14.27319 -5.21825,6.13919 -9.43881,13.506 -12.66171,22.10044 -3.22306,8.59477 -5.21823,18.03349 -5.98554,28.31619 z"
         style=""
         id="path3334" />
    </g>
  </g>
</svg>
