<?xml version="1.0" encoding="UTF-8" standalone="no"?>
<!-- Created with Inkscape (http://www.inkscape.org/) -->

<svg
   xmlns:dc="http://purl.org/dc/elements/1.1/"
   xmlns:cc="http://creativecommons.org/ns#"
   xmlns:rdf="http://www.w3.org/1999/02/22-rdf-syntax-ns#"
   xmlns:svg="http://www.w3.org/2000/svg"
   xmlns="http://www.w3.org/2000/svg"
   xmlns:sodipodi="http://sodipodi.sourceforge.net/DTD/sodipodi-0.dtd"
   xmlns:inkscape="http://www.inkscape.org/namespaces/inkscape"
   width="297mm"
   height="210mm"
   id="svg2985"
   version="1.1"
   inkscape:version="0.48.4 r9939"
   sodipodi:docname="depth_profile_rel.svg">
  <defs
     id="defs2987" />
  <sodipodi:namedview
     inkscape:document-units="mm"
     pagecolor="#ffffff"
     bordercolor="#666666"
     borderopacity="1.0"
     inkscape:pageopacity="0.0"
     inkscape:pageshadow="2"
     inkscape:zoom="0.43415836"
     inkscape:cx="130.6841"
     inkscape:cy="195.73544"
     inkscape:current-layer="layer1"
     id="namedview2989"
     showgrid="false"
     inkscape:window-width="1618"
     inkscape:window-height="1028"
     inkscape:window-x="54"
     inkscape:window-y="-8"
     inkscape:window-maximized="1" />
  <metadata
     id="metadata2991">
    <rdf:RDF>
      <cc:Work
         rdf:about="">
        <dc:format>image/svg+xml</dc:format>
        <dc:type
           rdf:resource="http://purl.org/dc/dcmitype/StillImage" />
        <dc:title></dc:title>
      </cc:Work>
    </rdf:RDF>
  </metadata>
  <g
     inkscape:label="Layer 1"
     inkscape:groupmode="layer"
     id="layer1">
    <g
       style="font-size:471.47601318px;font-style:normal;font-variant:normal;font-weight:normal;font-stretch:normal;line-height:76.00000501%;letter-spacing:0px;word-spacing:0px;fill:#000000;fill-opacity:1;stroke:none;font-family:Consolas;-inkscape-font-specification:Consolas"
       id="text3061">
      <path
         d="m 270.93394,352.49445 -44.6613,0 -20.94937,-65.61068 -125.235819,0 -21.179586,65.61068 -42.589386,0 99.912401,-300.888261 56.17194,0 z M 193.58241,250.27992 142.70536,89.361104 91.828309,250.27992 z"
         style=""
         id="path3337" />
      <path
         d="m 508.05322,232.78374 c -2.3e-4,19.18451 -2.64768,36.33535 -7.94234,51.45258 -5.29512,15.11737 -12.8154,27.93254 -22.56086,38.44556 -9.74588,10.51307 -21.60183,18.57051 -35.5679,24.17235 -13.9664,5.60185 -29.6976,8.40277 -47.19364,8.40277 -13.65941,0 -27.62564,-1.30454 -41.89875,-3.91362 -14.27326,-2.60907 -28.39297,-6.7529 -42.35917,-12.4315 l 0,-311.708258 40.05704,0 0,89.552818 -1.8417,42.8196 c 11.51056,-15.5008 23.82694,-26.4359 36.94917,-32.80534 13.12201,-6.36899 27.20335,-9.5536 42.24407,-9.55383 13.1987,2.3e-4 24.78607,2.76278 34.76214,8.28766 9.9757,5.52533 18.34009,13.31419 25.09321,23.36661 6.75269,10.05282 11.81737,22.17736 15.19405,36.37364 3.37622,14.19661 5.06445,30.04292 5.06468,47.53896 z m -40.97789,1.8417 c -1.9e-4,-12.12441 -0.88268,-23.25136 -2.64745,-33.38087 -1.76515,-10.1292 -4.56608,-18.80055 -8.40277,-26.01405 -3.83706,-7.21316 -8.74826,-12.85337 -14.73363,-16.92065 -5.98569,-4.0669 -13.12229,-6.10044 -21.4098,-6.10064 -5.06482,2e-4 -10.20624,0.80594 -15.42426,2.41723 -5.21828,1.61169 -10.62828,4.2975 -16.23001,8.05745 -5.60195,3.76033 -11.51075,8.74827 -17.72639,14.96384 -6.21584,6.21592 -12.85364,13.92804 -19.91342,23.1364 l 0,112.11368 c 7.82716,3.06954 15.80786,5.48677 23.94214,7.2517 8.13408,1.765 15.88458,2.64748 23.25151,2.64745 9.20838,3e-5 17.99483,-1.45798 26.35937,-4.37404 8.36425,-2.916 15.73105,-7.78883 22.10044,-14.61852 6.36905,-6.8296 11.43372,-15.88463 15.19405,-27.16512 3.75996,-11.28035 5.64003,-25.28495 5.64022,-42.01386 z"
         style=""
         id="path3339" />
      <path
         d="m 753.22996,289.41611 c -2.2e-4,8.13425 -1.3815,15.42431 -4.14384,21.87023 -2.76276,6.44599 -6.5229,12.16294 -11.28043,17.15086 -4.75793,4.98796 -10.28303,9.2469 -16.57533,12.77681 -6.29266,3.52994 -13.0072,6.44597 -20.14362,8.74809 -7.13676,2.30213 -14.4652,3.99036 -21.98534,5.06469 -7.52042,1.07432 -14.88723,1.61148 -22.10043,1.61149 -15.65459,-1e-5 -30.04288,-0.69064 -43.16492,-2.07192 -13.1222,-1.38128 -25.97575,-3.60667 -38.56066,-6.67617 l 0,-36.83407 c 13.50577,3.83692 26.93484,6.75295 40.28725,8.74809 13.35226,1.99521 26.62785,2.9928 39.82684,2.99277 19.18426,3e-5 33.38071,-2.60905 42.58938,-7.82724 9.20834,-5.21811 13.8126,-12.66166 13.81278,-22.33065 -1.8e-4,-4.14377 -0.72919,-7.86554 -2.18703,-11.16532 -1.45819,-3.29965 -4.10563,-6.44589 -7.94234,-9.43873 -3.83705,-2.99269 -9.78421,-6.10056 -17.8415,-9.32362 -8.0576,-3.22289 -19.06943,-6.90629 -33.03555,-11.05022 -10.43643,-3.0694 -20.06699,-6.56096 -28.89172,-10.47469 -8.82491,-3.9135 -16.46029,-8.55613 -22.90618,-13.92788 -6.44602,-5.3715 -11.5107,-11.66398 -15.19406,-18.87746 -3.68345,-7.21318 -5.52515,-15.73105 -5.5251,-25.55363 -5e-5,-6.44578 1.49633,-13.50564 4.48915,-21.17959 2.99271,-7.67356 8.09576,-14.81015 15.30915,-21.4098 7.21327,-6.59921 16.95894,-12.08595 29.23704,-16.46022 12.27792,-4.37381 27.62543,-6.56083 46.04258,-6.56106 9.05489,2.3e-4 19.10751,0.49902 30.15789,1.49638 11.05004,0.99782 22.56067,2.72442 34.53194,5.17979 l 0,35.683 c -12.58517,-3.06931 -24.51786,-5.33307 -35.79811,-6.79128 -11.28059,-1.45782 -21.06463,-2.18682 -29.35214,-2.18702 -9.97603,2e-4 -18.37879,0.76757 -25.20832,2.30212 -6.82975,1.53495 -12.35486,3.64524 -16.57532,6.33086 -4.22067,2.68601 -7.2518,5.83225 -9.09341,9.43873 -1.84179,3.60685 -2.76264,7.48209 -2.76256,11.62575 -8e-5,4.144 0.80566,7.90414 2.41724,11.28043 1.6114,3.37661 4.60416,6.63796 8.9783,9.78405 4.37394,3.14639 10.47458,6.29263 18.30192,9.43873 7.82712,3.14638 18.03321,6.5612 30.61832,10.24447 13.65914,3.99049 25.16977,8.17268 34.53193,12.5466 9.36181,4.37416 16.95882,9.247 22.79108,14.61852 5.83185,5.37174 10.01405,11.434 12.5466,18.18682 2.53213,6.75299 3.7983,14.42675 3.79852,23.02129 z"
         style=""
         id="path3341" />
      <path
         d="m 1031.0969,235.08587 c -2e-4,17.9567 -2.5326,34.41691 -7.597,49.38066 -5.0649,14.9639 -12.355,27.77907 -21.8703,38.44556 -9.51563,10.66655 -21.103,18.9542 -34.76211,24.86299 -13.65946,5.9088 -29.16044,8.86319 -46.503,8.8632 -16.57544,-1e-5 -31.42416,-2.57071 -44.5462,-7.71213 -13.1222,-5.14142 -24.24915,-12.70007 -33.38087,-22.67597 -9.13182,-9.97586 -16.11493,-22.33061 -20.94937,-37.06428 -4.8345,-14.73355 -7.25173,-31.69255 -7.25171,-50.87705 -2e-5,-17.95647 2.53232,-34.33994 7.59703,-49.15045 5.06465,-14.81019 12.35471,-27.54862 21.87022,-38.21535 9.51541,-10.66631 21.10278,-18.95397 34.76215,-24.86299 13.6592,-5.90856 29.16019,-8.86296 46.50301,-8.86319 16.57518,2.3e-4 31.42389,2.57094 44.54619,7.71213 13.12195,5.14164 24.24889,12.66192 33.38086,22.56086 9.1316,9.89935 16.1147,22.21573 20.9494,36.94917 4.8342,14.73378 7.2515,31.61604 7.2517,50.64684 z m -40.97791,1.8417 c -1.9e-4,-14.27307 -1.57331,-26.74292 -4.71936,-37.40959 -3.14643,-10.66637 -7.63558,-19.56793 -13.46745,-26.7047 -5.83224,-7.13641 -12.93046,-12.50804 -21.2947,-16.1149 -8.36455,-3.60647 -17.68816,-5.40981 -27.97086,-5.41001 -11.97119,2e-4 -22.21566,2.3407 -30.73343,7.0215 -8.51796,4.68118 -15.50108,10.93529 -20.94937,18.76235 -5.44844,7.8274 -9.4388,16.9208 -11.97107,27.28023 -2.53241,10.35971 -3.79857,21.21808 -3.79851,32.57512 -6e-5,14.2733 1.57306,26.78152 4.71936,37.5247 3.14617,10.74334 7.63532,19.68326 13.46746,26.81981 5.83197,7.13664 12.89183,12.50827 21.17958,16.1149 8.28756,3.6067 17.64954,5.41003 28.08598,5.41 11.97093,3e-5 22.21539,-2.34046 30.73342,-7.02149 8.51771,-4.68096 15.50082,-10.93507 20.94937,-18.76235 5.44819,-7.82718 9.43854,-16.92058 11.97107,-27.28023 2.53215,-10.35949 3.79832,-21.29459 3.79851,-32.80534 z"
         style=""
         id="path3343" />
      <path
         d="m 129.58322,418.44586 -68.373226,0 0,-32.92044 108.890696,0 0,291.90995 68.83366,0 0,33.38087 -185.321382,0 0,-33.38087 75.970252,0 z"
         style=""
         id="path3345" />
      <path
         d="m 496.31237,710.81624 -35.91322,0 -1.38127,-37.29449 c -6.90657,7.98074 -13.46763,14.61854 -19.68321,19.91342 -6.2159,5.2949 -12.39328,9.55384 -18.53213,12.77681 -6.13916,3.22298 -12.31653,5.48674 -18.53214,6.79128 -6.21587,1.30454 -12.77693,1.95681 -19.6832,1.95681 -23.78876,0 -41.74534,-6.98312 -53.86982,-20.94937 -12.12459,-13.96622 -18.18686,-35.06905 -18.18682,-63.30855 l 0,-151.01966 40.05704,0 0,147.79668 c -7e-5,35.45283 13.35226,53.17921 40.05705,53.17918 4.91108,3e-5 9.70718,-0.72898 14.3883,-2.18702 4.68086,-1.45798 9.59207,-3.99032 14.73363,-7.59703 5.14127,-3.60662 10.66637,-8.47946 16.57533,-14.61852 5.90863,-6.13895 12.54642,-13.88944 19.91341,-23.2515 l 0,-153.32179 40.05705,0 z"
         style=""
         id="path3347" />
      <path
         d="m 756.45294,707.59326 c -9.05526,2.30213 -18.41724,3.95199 -28.08598,4.94958 -9.66912,0.99758 -19.49153,1.49638 -29.46725,1.49638 -29.00696,0 -50.64695,-6.56106 -64.92003,-19.6832 -14.27329,-13.12211 -21.40988,-33.26572 -21.4098,-60.43089 l 0,-120.63156 -64.68983,0 0,-33.61108 64.68983,0 0,-63.53876 40.05704,-10.35958 0,73.89834 103.82602,0 0,33.61108 -103.82602,0 0,117.40858 c -1.2e-4,16.57539 4.41229,28.96851 13.23724,37.17938 8.82469,8.21097 21.8317,12.31642 39.02109,12.31639 7.36663,3e-5 15.42408,-0.5755 24.17235,-1.72659 8.74789,-1.15103 17.87966,-2.95437 27.39534,-5.41001 z"
         style=""
         id="path3349" />
      <path
         d="m 1025.1114,583.04808 c -3e-4,5.67871 -0.077,10.43644 -0.2303,14.2732 -0.1537,3.83699 -0.3839,7.44366 -0.6906,10.82001 l -162.30009,0 c -7e-5,23.63527 6.59936,41.7837 19.79831,54.44535 13.19877,12.66174 32.22969,18.99259 57.0928,18.99256 6.75276,3e-5 13.50566,-0.26855 20.25873,-0.80574 6.75274,-0.53714 13.27543,-1.26614 19.5681,-2.18703 6.29229,-0.92081 12.31619,-1.95677 18.07171,-3.10787 5.75514,-1.15103 11.08834,-2.4172 15.99984,-3.79851 l 0,32.92044 c -10.897,3.06951 -23.21337,5.56348 -36.94921,7.48192 -13.73621,1.91844 -27.97102,2.87766 -42.70449,2.87766 -19.79843,0 -36.83417,-2.68582 -51.10727,-8.05745 -14.27327,-5.37162 -25.97575,-13.16049 -35.10746,-23.36661 -9.13183,-10.20607 -15.88473,-22.71429 -20.25874,-37.5247 -4.37407,-14.81028 -6.56109,-31.57744 -6.56107,-50.30152 -2e-5,-16.26825 2.34047,-31.65413 7.0215,-46.15768 4.68095,-14.50324 11.5106,-27.24168 20.48895,-38.21535 8.97823,-10.97327 19.99007,-19.68298 33.03555,-26.12916 13.04529,-6.44573 27.85564,-9.66871 44.43109,-9.66894 16.11475,2.3e-4 30.38794,2.53257 42.81959,7.59702 12.43131,5.06491 22.90599,12.23987 31.42406,21.52491 8.5177,9.28545 14.9636,20.56587 19.3379,33.8413 4.3738,13.27577 6.5608,28.12448 6.5611,44.54619 z m -41.66858,-5.75532 c 0.46024,-10.2827 -0.53735,-19.68305 -2.99277,-28.20108 -2.45579,-8.51771 -6.25429,-15.84614 -11.39554,-21.98533 -5.14159,-6.13882 -11.54917,-10.93492 -19.22277,-14.38831 -7.67391,-3.45299 -16.57547,-5.17959 -26.7047,-5.17979 -8.74821,2e-4 -16.72892,1.68843 -23.94214,5.06469 -7.21344,3.37665 -13.42918,8.13437 -18.64724,14.27319 -5.21825,6.13919 -9.43881,13.506 -12.66171,22.10044 -3.22306,8.59477 -5.21823,18.03349 -5.98554,28.31619 z"
         style=""
         id="path3351" />
    </g>
  </g>
</svg>
