<?xml version="1.0" encoding="UTF-8" standalone="no"?>
<!-- Created with Inkscape (http://www.inkscape.org/) -->
<svg
   xmlns:svg="http://www.w3.org/2000/svg"
   xmlns="http://www.w3.org/2000/svg"
   version="1.0"
   width="162.5"
   height="162.5"
   id="svg101">
  <defs
     id="defs4" />
  <path
     d="M 40.625,108.164 C 40.625,108.164 59.9219,66.0155 59.9219,66.0155 C 59.9219,66.0155 72.1095,130.508 72.6173,130.508 C 73.1251,130.508 86.3282,92.4218 86.3282,92.4218 C 86.3282,92.4218 94.4532,105.117 94.4532,105.117 C 94.4532,105.117 103.594,90.3905 103.594,90.3905 C 103.594,90.3905 106.133,94.453 106.133,94.453 C 106.133,94.453 115.274,76.1718 115.274,76.1718 C 115.274,76.1718 119.336,86.328 119.336,86.328 C 119.336,86.328 127.461,67.0311 127.461,67.0311"
     transform="matrix(1.676206,0,0,1.676206,-59.94543,-75.79025)"
     style="font-size:12px;fill:none;fill-rule:evenodd;stroke:#4a4b4f;stroke-width:7.45732021;stroke-linecap:round;stroke-linejoin:round"
     id="path1165" />
</svg>
